<?xml version="1.0" standalone="no"?>
<!DOCTYPE svg PUBLIC "-//W3C//DTD SVG 20010904//EN"
 "http://www.w3.org/TR/2001/REC-SVG-20010904/DTD/svg10.dtd">
<svg version="1.0" xmlns="http://www.w3.org/2000/svg"
 width="256.000000pt" height="256.000000pt" viewBox="0 0 256.000000 256.000000"
 preserveAspectRatio="xMidYMid meet">
<metadata>
Created by potrace 1.14, written by Peter Selinger 2001-2017
</metadata>
<g transform="translate(0.000000,256.000000) scale(0.100000,-0.100000)"
fill="#000000" stroke="none">
<path d="M0 1280 l0 -1280 1280 0 1280 0 0 1280 0 1280 -1280 0 -1280 0 0
-1280z m1293 1126 c10 -4 22 -16 27 -26 5 -9 12 -197 15 -416 6 -375 6 -401
-12 -434 -31 -60 -105 -66 -140 -13 -16 24 -18 55 -18 263 -1 129 -2 290 -3
358 l-2 122 -167 0 -168 0 3 -237 c5 -376 -14 -462 -110 -511 -26 -13 -72 -26
-106 -29 -58 -5 -62 -4 -91 25 -19 18 -31 41 -31 57 0 36 38 71 86 78 77 13
79 17 83 296 2 162 -1 278 -9 339 -12 91 -12 93 10 117 12 13 32 25 44 27 45
6 572 -8 589 -16z m297 -294 c30 -24 39 -81 40 -249 0 -79 4 -143 8 -143 15 0
133 129 240 261 126 156 167 178 229 125 l28 -24 0 -287 0 -287 -28 -24 c-35
-30 -78 -31 -112 -1 l-27 22 1 160 1 160 -33 -40 c-81 -101 -274 -281 -334
-313 -34 -19 -79 -14 -108 11 l-25 22 -9 280 c-5 181 -5 287 1 301 20 43 90
57 128 26z m888 -1496 c1 -367 -1 -513 -9 -522 -9 -12 -109 -14 -560 -14
l-548 0 24 25 c31 30 31 58 5 150 -49 168 -82 313 -110 490 -37 227 -45 258
-81 296 -38 41 -81 39 -123 -3 -27 -28 -37 -54 -65 -163 -30 -117 -124 -411
-134 -422 -7 -7 -44 142 -77 307 -41 209 -55 255 -86 279 -52 41 -119 18 -151
-51 -11 -24 -28 -77 -37 -118 -52 -239 -69 -309 -106 -440 -51 -183 -57 -275
-21 -314 36 -38 91 -36 124 4 26 30 29 39 47 150 9 54 54 240 77 314 3 11 19
-36 39 -115 61 -236 92 -326 121 -348 52 -42 119 -18 155 55 8 16 48 126 88
244 l74 214 27 -139 c42 -216 77 -346 105 -382 l25 -33 -598 0 c-453 0 -602 3
-611 12 -9 9 -12 138 -12 518 0 279 3 510 7 513 3 4 547 6 1207 5 l1201 -3 3
-509z"/>
<path d="M1512 763 c-36 -14 -40 -50 -33 -336 l6 -279 29 -25 c24 -21 37 -24
72 -20 63 7 250 169 377 327 l28 35 -3 -158 -3 -159 28 -24 c36 -31 78 -31
114 0 l28 24 0 287 0 287 -28 24 c-62 53 -107 29 -231 -126 -105 -130 -223
-260 -237 -260 -5 0 -9 69 -9 153 0 166 -9 218 -43 242 -21 14 -69 19 -95 8z"/>
</g>
</svg>
